<svg width="854" height="286" viewBox="0 0 854 286" fill="none" xmlns="http://www.w3.org/2000/svg">
<path d="M0.5 38.883C0.499999 20.7927 20.0833 9.48628 35.75 18.5314L215.79 122.477C231.457 131.522 231.457 154.136 215.79 163.181L35.75 267.126C20.0833 276.171 0.500001 264.865 0.5 246.775V38.883Z" fill="url(#paint0_linear_10_19)" stroke="#F00E16"/>
<path d="M293.23 1.69034H325.468L359.516 84.7585H360.965L395.013 1.69034H427.25V125.327H401.895V44.8544H400.869L368.873 124.723H351.608L319.612 44.5526H318.586V125.327H293.23V1.69034Z" fill="white"/>
<path d="M567.502 63.5085C567.502 76.991 564.947 88.4612 559.835 97.919C554.764 107.377 547.842 114.601 539.068 119.592C530.335 124.542 520.515 127.017 509.608 127.017C498.621 127.017 488.76 124.522 480.027 119.531C471.294 114.541 464.391 107.317 459.32 97.8587C454.249 88.4008 451.714 76.9508 451.714 63.5085C451.714 50.026 454.249 38.5559 459.32 29.098C464.391 19.6402 471.294 12.4361 480.027 7.4858C488.76 2.49527 498.621 0 509.608 0C520.515 0 530.335 2.49527 539.068 7.4858C547.842 12.4361 554.764 19.6402 559.835 29.098C564.947 38.5559 567.502 50.026 567.502 63.5085ZM541 63.5085C541 54.7751 539.692 47.41 537.076 41.4134C534.5 35.4167 530.858 30.8689 526.149 27.7699C521.44 24.6709 515.927 23.1215 509.608 23.1215C503.289 23.1215 497.776 24.6709 493.067 27.7699C488.358 30.8689 484.696 35.4167 482.08 41.4134C479.504 47.41 478.216 54.7751 478.216 63.5085C478.216 72.242 479.504 79.607 482.08 85.6037C484.696 91.6004 488.358 96.1482 493.067 99.2472C497.776 102.346 503.289 103.896 509.608 103.896C515.927 103.896 521.44 102.346 526.149 99.2472C530.858 96.1482 534.5 91.6004 537.076 85.6037C539.692 79.607 541 72.242 541 63.5085Z" fill="white"/>
<path d="M607.33 1.69034L637.212 95.625H638.359L668.303 1.69034H697.28L654.659 125.327H620.973L578.292 1.69034H607.33Z" fill="white"/>
<path d="M743.401 1.69034V125.327H717.261V1.69034H743.401Z" fill="white"/>
<path d="M770.007 125.327V1.69034H853.317V23.2422H796.147V52.7024H849.031V74.2543H796.147V103.775H853.559V125.327H770.007Z" fill="white"/>
<path d="M288.522 183.242V161.69H390.063V183.242H352.211V285.327H326.373V183.242H288.522Z" fill="white"/>
<path d="M406.785 285.327V161.69H455.564C464.901 161.69 472.869 163.361 479.47 166.701C486.11 170.001 491.161 174.69 494.623 180.767C498.124 186.804 499.875 193.907 499.875 202.077C499.875 210.288 498.104 217.351 494.562 223.267C491.02 229.143 485.889 233.651 479.168 236.79C472.487 239.929 464.398 241.499 454.9 241.499H422.24V220.49H450.674C455.664 220.49 459.81 219.806 463.11 218.438C466.41 217.069 468.865 215.017 470.475 212.28C472.125 209.543 472.95 206.142 472.95 202.077C472.95 197.972 472.125 194.511 470.475 191.694C468.865 188.877 466.39 186.744 463.049 185.295C459.749 183.806 455.584 183.061 450.553 183.061H432.925V285.327H406.785ZM473.554 229.062L504.282 285.327H475.425L445.361 229.062H473.554Z" fill="white"/>
<path d="M518.348 285.327V161.69H601.657V183.242H544.488V212.702H597.371V234.254H544.488V263.775H601.899V285.327H518.348Z" fill="white"/>
<path d="M725.852 161.69V285.327H703.274L649.485 207.511H648.579V285.327H622.439V161.69H645.38L698.746 239.446H699.833V161.69H725.852Z" fill="white"/>
<path d="M791.277 285.327H747.449V161.69H791.64C804.076 161.69 814.781 164.165 823.756 169.116C832.731 174.026 839.633 181.089 844.463 190.305C849.332 199.522 851.767 210.549 851.767 223.388C851.767 236.267 849.332 247.334 844.463 256.591C839.633 265.848 832.691 272.951 823.635 277.901C814.62 282.852 803.834 285.327 791.277 285.327ZM773.589 262.93H790.191C797.918 262.93 804.418 261.561 809.69 258.825C815.003 256.048 818.987 251.761 821.643 245.966C824.34 240.13 825.688 232.604 825.688 223.388C825.688 214.252 824.34 206.786 821.643 200.991C818.987 195.195 815.023 190.929 809.75 188.192C804.478 185.456 797.978 184.087 790.251 184.087H773.589V262.93Z" fill="white"/>
<defs>
<linearGradient id="paint0_linear_10_19" x1="9.21645e-06" y1="-2.68659" x2="168.027" y2="288.344" gradientUnits="userSpaceOnUse">
<stop stop-color="#F00E16"/>
<stop offset="1" stop-color="#C0090D"/>
</linearGradient>
</defs>
</svg>
